# This file uses inches as units for non-parametric coordinates.

mtllib big_rock2.mtl
v 3.041112 0.061526 -1.367503
v -3.573622 -0.119808 -2.617903
v 3.337362 2.831655 -2.696527
v -3.076836 2.437157 -1.967917
v 2.659080 4.065767 0.734066
v -3.320191 3.309978 2.069280
v 2.947932 -0.058855 1.374200
v -2.817462 -0.188105 2.018992
v 2.094447 3.436859 -2.309151
v -1.490616 3.899455 -1.940295
v -2.863810 4.196282 1.863765
v 2.243156 4.522555 0.536784
v -4.193854 -0.220760 1.043733
v -4.443394 -0.177868 -1.160145
v -4.037424 1.960106 1.082023
v -4.359574 1.801959 -0.894456
v 1.345963 2.725401 2.486851
v -2.409607 2.336108 2.443942
v -2.024127 -0.213080 2.677864
v 2.003518 -0.124585 2.190889
v 1.179227 3.944227 -2.350775
v -1.024640 4.393161 -1.000032
v -1.370987 3.768220 1.841904
v 1.146160 4.433962 -0.486497
v 0.246728 5.209451 -0.890166
v -0.606982 4.719900 0.070616
v -0.930252 4.451959 1.665099
v 0.595712 4.898265 0.056803
v -0.136753 4.380487 -2.475404
v -0.189586 4.540800 -1.774929
v -0.202673 4.932005 -0.312796
v -0.314815 4.325277 1.706402
v -0.342974 3.744185 1.945404
v -1.100172 3.620638 2.375141
v -0.950098 3.174353 2.453571
v -0.157865 2.590874 3.177378
v 0.081309 -0.146346 3.195971
v 0.266647 -0.117532 2.617126
v 1.133952 0.020620 -1.946401
v 0.270340 3.003486 -2.920650
v -0.802484 -0.068644 -3.286598
v -1.521483 2.398984 -3.708989
v -2.284606 -0.089065 -3.264309
v -2.734633 2.219616 -3.373682
v -1.253623 3.441794 -2.982143
v -1.757374 2.928168 -2.413855
v 4.378608 3.035871 -0.606538
v 3.930942 -0.304743 -0.011427
v 0.462090 -0.251396 0.391377
v -2.733386 -0.393856 0.027048
v -4.473479 -0.463835 -0.220058
v -4.646946 1.943029 -0.143469
v -3.606493 3.187262 0.298875
v -3.021465 3.946035 0.520122
v -1.554427 3.898444 0.835548
v -1.123212 4.698608 0.947293
v -0.168348 4.787491 0.271255
v 0.663522 5.193118 -0.828454
v 1.714448 4.007347 -1.423320
v 3.253159 3.801735 -0.264562
vt 1.107167 0.116764
vt 1.195043 0.568575
vt 1.327752 1.337686
vt -0.218902 1.477953
vt 0.479446 1.362733
vt 1.198035 1.286785
vt 0.657522 0.571705
vt 0.497835 0.540373
vt 0.519873 0.099290
vt 0.728563 0.082848
vt 0.980864 0.129735
vt -0.065764 0.165732
vt 0.002706 0.131422
vt 0.008004 0.439572
vt -0.047666 0.415457
vt 1.024672 0.592600
vt -0.499597 0.968212
vt 1.236956 0.715007
vt -0.167644 0.512033
vt 0.050517 0.644894
vt 0.083672 0.808359
vt -0.284109 0.891384
vt 0.406945 0.675694
vt 0.891553 0.830405
vt 0.897513 0.951357
vt 0.388050 0.766610
vt 1.000789 0.754135
vt -0.191479 0.157151
vt 0.034621 -0.017980
vt 0.223914 0.099436
vt 0.200750 0.648496
vt 0.105189 0.436539
vt 0.098695 0.152034
vt 0.317895 0.094071
vt 0.277154 0.493384
vt 0.544145 0.048447
vt 0.845127 0.112325
vt -0.488356 1.110838
vt 1.321735 0.860480
vt 0.208683 0.949072
vt -0.221419 1.168176
vt 1.056607 1.141594
vt 0.469937 0.853335
vt 1.179250 0.908732
vt 0.281107 1.124254
vt 0.192688 1.347064
vt 0.870964 1.306011
vt 0.470820 0.996960
vt 0.330502 0.831194
vt 0.375014 0.999873
vt 0.210246 0.809052
vt -0.378347 0.504479
vt -0.430868 0.075594
vt -0.302396 0.126036
vt -0.278656 0.475987
vt -0.375920 0.721559
vt -0.294645 0.629154
vt 1.781098 1.477953
vt 2.479446 1.362733
vt 3.198035 1.286785
vt 1.500403 0.968212
vt 1.511644 1.110838
vt 1.295115 -0.034101
vt 0.736831 -0.293909
vt 1.569132 0.075594
vt 1.808521 0.157151
vt 1.697604 0.126036
vt 1.452068 0.646364
vt 1.621653 0.504479
vt 1.624080 0.721559
vn 0.415502 -0.644886 -0.641467
vn 0.176640 -0.771510 -0.611205
vn 0.302975 -0.008469 -0.952961
vn 0.517453 -0.042139 -0.854674
vn 0.019965 0.910875 -0.412199
vn -0.297449 0.942446 -0.152709
vn -0.042498 0.964400 0.261010
vn 0.514540 0.845433 -0.143150
vn 0.496963 0.320546 0.806398
vn 0.077320 0.270287 0.959670
vn 0.085178 -0.164689 0.982661
vn 0.616662 -0.070217 0.784091
vn 0.811666 -0.544683 0.210996
vn 0.032688 -0.999193 -0.023336
vn -0.739059 -0.469665 -0.482915
vn -0.660432 -0.747467 0.071569
vn -0.951757 0.306697 0.009752
vn -0.817848 0.349020 -0.457504
vn 0.977329 0.158986 0.139828
vn -0.014621 0.687360 -0.726170
vn 0.309682 0.723851 -0.616553
vn -0.709360 0.471079 -0.524303
vn -0.755841 0.628140 -0.184782
vn -0.521683 0.831755 -0.189817
vn -0.510534 0.801136 -0.312309
vn 0.024086 0.536440 0.843595
vn 0.649529 0.301497 0.698006
vn 0.245189 0.929873 0.274260
vn 0.097017 0.532312 0.840970
vn 0.438306 0.870837 -0.222554
vn -0.440770 -0.771126 -0.459442
vn 0.028513 -0.999045 -0.033117
vn -0.333829 -0.793200 0.509306
vn -0.669844 0.254041 0.697690
vn -0.827276 0.091576 0.554282
vn -0.696121 -0.471789 0.541139
vn -0.334395 -0.274550 0.901556
vn -0.364366 0.075045 0.928227
vn 0.020731 -0.998227 0.055799
vn 0.636484 -0.418123 0.648122
vn -0.270149 0.887736 -0.372752
vn 0.326288 0.840495 -0.432556
vn -0.263168 0.964548 -0.019729
vn -0.343730 0.934716 -0.090315
vn 0.380177 0.924583 0.024726
vn -0.036859 0.950268 0.309243
vn 0.413042 0.843571 -0.343198
vn -0.505944 0.853742 0.123067
vn -0.552567 0.824850 -0.119547
vn 0.575250 0.657524 0.486569
vn 0.539627 0.545955 0.640887
vn -0.032252 0.977884 0.206648
vn -0.283770 0.775995 0.563299
vn -0.335070 0.847245 0.412195
vn 0.198442 0.063805 -0.978034
vn 0.312917 -0.509525 -0.801541
vn -0.323108 -0.670362 -0.667994
vn -0.532828 0.169347 -0.829106
vn -0.201377 0.628552 -0.751246
vn -0.499369 0.737169 -0.455206
s 1
usemtl lambert7SG
f 1/1/1 39/63/2 40/68/3 3/2/4
f 25/3/5 31/58/6 57/59/7 58/60/8
f 17/7/9 36/8/10 37/9/11 20/10/12
f 48/11/13 49/64/14 39/63/2 1/1/1
f 14/12/15 51/13/16 52/14/17 16/15/18
f 48/11/13 1/1/1 3/2/4 47/16/19
f 3/2/4 40/68/3 29/61/20 9/18/21
f 4/19/22 53/20/23 54/21/24 10/22/25
f 35/23/26 5/24/27 12/25/28 34/26/29
f 60/27/30 47/16/19 3/2/4 9/18/21
f 2/28/31 50/29/32 51/13/16 14/12/15
f 8/30/33 6/31/34 15/32/35 13/33/36
f 53/20/23 4/19/22 16/15/18 52/14/17
f 4/19/22 2/28/31 14/12/15 16/15/18
f 5/24/27 35/23/26 36/8/10 17/7/9
f 6/31/34 8/30/33 19/34/37 18/35/38
f 38/36/39 7/37/40 20/10/12 37/9/11
f 7/37/40 5/24/27 17/7/9 20/10/12
f 9/18/21 29/61/20 30/62/41 21/39/42
f 10/22/25 54/21/24 55/40/43 22/41/44
f 34/26/29 12/25/28 24/42/45 33/43/46
f 60/27/30 9/18/21 21/39/42 59/44/47
f 21/39/42 30/62/41 31/58/6 25/3/5
f 22/41/44 55/40/43 56/45/48 26/46/49
f 33/43/46 24/42/45 28/47/50 32/48/51
f 59/44/47 21/39/42 25/3/5 58/6/8
f 29/17/20 10/22/25 22/41/44 30/38/41
f 31/4/6 30/38/41 22/41/44 26/46/49
f 57/5/7 31/4/6 26/46/49 56/45/48
f 23/49/52 33/43/46 32/48/51 27/50/53
f 11/51/54 34/26/29 33/43/46 23/49/52
f 6/31/34 35/23/26 34/26/29 11/51/54
f 36/8/10 35/23/26 6/31/34 18/35/38
f 37/9/11 36/8/10 18/35/38 19/34/37
f 8/30/33 38/36/39 37/9/11 19/34/37
f 39/63/2 49/64/14 50/29/32 2/66/31
f 42/52/55 41/53/56 43/54/57 44/55/58
f 45/56/59 42/52/55 44/55/58 46/57/60
f 40/68/3 39/63/2 41/65/56 42/69/55
f 39/63/2 2/66/31 43/67/57 41/65/56
f 2/28/31 4/19/22 44/55/58 43/54/57
f 29/61/20 40/68/3 42/69/55 45/70/59
f 4/19/22 10/22/25 46/57/60 44/55/58
f 10/22/25 29/17/20 45/56/59 46/57/60
f 7/37/40 48/11/13 47/16/19 5/24/27
f 7/37/40 38/36/39 49/64/14 48/11/13
f 50/29/32 49/64/14 38/36/39 8/30/33
f 51/13/16 50/29/32 8/30/33 13/33/36
f 52/14/17 51/13/16 13/33/36 15/32/35
f 6/31/34 53/20/23 52/14/17 15/32/35
f 54/21/24 53/20/23 6/31/34 11/51/54
f 55/40/43 54/21/24 11/51/54 23/49/52
f 56/45/48 55/40/43 23/49/52 27/50/53
f 32/48/51 57/5/7 56/45/48 27/50/53
f 58/6/8 57/5/7 32/48/51 28/47/50
f 24/42/45 59/44/47 58/6/8 28/47/50
f 12/25/28 60/27/30 59/44/47 24/42/45
f 5/24/27 47/16/19 60/27/30 12/25/28
