# This file uses inches as units for non-parametric coordinates.

mtllib big_rock.mtl
v 2.745338 0.061526 -1.474859
v -2.422946 -0.119808 -2.104350
v 2.661744 3.180523 -1.932783
v -2.601316 3.091562 -2.102761
v 2.293935 3.909821 2.222660
v -2.623314 3.450233 1.944641
v 2.644557 0.009065 1.673291
v -2.550415 -0.186175 1.877244
v 2.149685 4.687004 -1.578841
v -2.136775 4.614550 -1.717274
v -2.245124 4.558147 1.667081
v 2.041336 4.630600 1.805516
v -5.266433 -0.220760 1.084817
v -5.184051 -0.177868 -1.488819
v -4.681941 1.964844 1.144802
v -4.599535 2.007736 -1.428835
v 1.869750 3.114892 2.700014
v -2.080511 2.563095 2.572429
v -2.024128 -0.187368 2.520312
v 1.837260 -0.012711 2.151884
v 1.488137 4.958911 -0.782575
v -0.209451 4.930624 -0.862635
v -0.247634 4.899927 1.001639
v 1.449951 4.928214 1.081699
v 1.139459 5.865288 -0.425818
v 0.092619 5.847845 -0.475192
v 0.069070 5.828916 0.674445
v 1.115910 5.846360 0.723818
v -0.086546 4.649205 -1.651061
v 0.499674 5.023439 -1.130693
v 0.490017 5.967004 -0.662676
v 0.459008 5.943043 0.791280
v 0.449385 4.984582 1.227071
v -0.194895 4.592802 1.733296
v -0.211300 4.038669 2.022545
v -0.191095 3.080059 2.835406
v 0.078804 -0.042433 2.095093
v 0.230001 -0.031847 1.600343
v 0.330781 0.020620 -1.547807
v -0.083982 3.134113 -2.021460
v -0.529941 -0.068644 -3.228372
v -0.695585 2.397295 -3.448906
v -1.734886 -0.089065 -3.264309
v -1.864751 2.377535 -3.486808
v -0.734448 3.528883 -2.561140
v -1.686666 3.512789 -2.591892
v 3.166456 3.150217 0.302998
v 3.517505 -0.304743 0.197488
v 0.324904 -0.239028 0.139690
v -2.547626 -0.393856 0.027048
v -5.676744 -0.463835 -0.117348
v -5.069682 1.972381 -0.052464
v -2.676195 3.588103 0.067884
v -2.239404 4.608024 0.098295
v -0.449044 5.016735 0.090325
v -0.067332 5.987379 0.091579
v 0.641579 6.134327 0.168153
v 1.470110 6.008695 0.152599
v 1.884003 5.051302 0.189270
v 2.489960 4.683609 0.242715
vt 0.816665 0.305144
vt 0.985996 0.305144
vt 0.998008 0.497331
vt 0.833694 0.497331
vt 0.995916 0.588273
vt 0.862092 0.588273
vt 0.903232 0.593441
vt 0.941553 0.592827
vt 0.936734 0.639515
vt 0.896756 0.640128
vt 0.976686 0.592265
vt 0.973386 0.638952
vt 0.940624 0.679806
vt 0.902303 0.680420
vt 0.975757 0.679243
vt 0.444527 0.271598
vt 0.444332 0.148660
vt 0.638076 0.148270
vt 0.638076 0.271597
vt 0.397902 0.296831
vt 0.387782 0.146851
vt 0.473525 0.034710
vt 0.638076 0.035201
vt 0.638076 0.327084
vt 0.354947 0.281657
vt 0.354947 0.147833
vt 0.420525 0.001955
vt 0.354947 0.025140
vt 0.150524 0.511535
vt 0.150143 0.334883
vt 0.278038 0.331785
vt 0.278418 0.501116
vt 0.040149 0.501116
vt 0.039768 0.331786
vt 0.149794 0.172926
vt 0.277689 0.176540
vt 0.001992 0.445629
vt 0.001992 0.322302
vt 0.039419 0.176540
vt 0.152892 0.001955
vt 0.235561 0.012655
vt 0.348361 0.215454
vt 0.348539 0.287556
vt 0.001992 0.209233
vt 0.081547 0.012655
vt 0.499127 0.941429
vt 0.483578 0.858760
vt 0.628662 0.858471
vt 0.629246 0.941140
vt 0.499127 0.787416
vt 0.629246 0.787126
vt 0.763741 0.001955
vt 0.891635 0.016558
vt 0.893668 0.208745
vt 0.760189 0.208992
vt 0.764325 0.301152
vt 0.873036 0.299687
vt 0.653366 0.016559
vt 0.645341 0.256732
vt 0.670506 0.299687
vt 0.240409 0.757104
vt 0.272265 0.627727
vt 0.332817 0.627761
vt 0.331352 0.736471
vt 0.265774 0.515527
vt 0.331352 0.533942
vt 0.001992 0.978646
vt 0.002545 0.761096
vt 0.128622 0.848528
vt 0.165877 0.978648
vt 0.105752 0.644904
vt 0.105969 0.515527
vt 0.225184 0.560707
vt 0.234274 0.643376
vt 0.099109 0.757104
vt 0.225185 0.714720
vt 0.225934 0.979314
vt 0.218521 0.787128
vt 0.382406 0.787126
vt 0.345149 0.917246
vt 0.174240 0.978647
vt 0.173695 0.761096
vt 0.211122 0.761096
vt 0.211605 0.925646
vt 0.338952 0.774679
vt 0.338952 0.640855
vt 0.368558 0.677273
vt 0.369553 0.739415
vt 0.338952 0.518163
vt 0.367645 0.620300
vt 0.447662 0.783135
vt 0.445261 0.747188
vt 0.447663 0.515527
vt 0.443354 0.622924
vt 0.541481 0.774679
vt 0.510599 0.740921
vt 0.541481 0.518163
vt 0.508691 0.621806
vt 0.541481 0.640855
vt 0.509604 0.678779
vt 0.768125 0.711379
vt 0.768125 0.649238
vt 0.824999 0.650517
vt 0.824999 0.688838
vt 0.768125 0.592265
vt 0.824999 0.615384
vt 0.635597 0.759237
vt 0.637360 0.683528
vt 0.694995 0.685151
vt 0.692470 0.731838
vt 0.635596 0.618191
vt 0.692470 0.644859
vt 0.889314 0.649238
vt 0.889314 0.711379
vt 0.832441 0.688260
vt 0.832441 0.649940
vt 0.889314 0.592265
vt 0.832441 0.614806
vt 0.703624 0.693899
vt 0.701861 0.618191
vt 0.758734 0.644859
vt 0.761260 0.691546
vt 0.701861 0.759237
vt 0.758734 0.731837
vt 0.589760 0.478467
vt 0.581926 0.331076
vt 0.654029 0.331076
vt 0.659728 0.478467
vt 0.589226 0.547017
vt 0.646210 0.547017
vt 0.700355 0.523257
vt 0.670310 0.614199
vt 0.547617 0.614199
vt 0.727123 0.497331
vt 0.724710 0.305144
vt 0.795211 0.305150
vt 0.810530 0.452541
vt 0.706490 0.588273
vt 0.758526 0.521091
vt 0.476206 0.787126
vt 0.473444 0.979312
vt 0.390028 0.934522
vt 0.405534 0.787130
vn 0.512852 -0.434912 -0.740159
vn 0.257396 -0.710412 -0.655029
vn 0.359956 0.037991 -0.932195
vn 0.547135 0.061252 -0.834801
vn 0.513931 0.618850 -0.594054
vn 0.018302 0.688670 -0.724844
vn 0.016834 0.999493 0.027020
vn 0.738417 0.674193 0.014271
vn 0.243380 0.026662 0.969564
vn -0.008695 0.079578 0.996791
vn 0.049214 -0.376308 0.925187
vn 0.232697 -0.350601 0.907156
vn 0.881855 -0.468791 0.050662
vn 0.031552 -0.999395 -0.014597
vn -0.474374 -0.535092 -0.699032
vn -0.623501 -0.780777 -0.040426
vn -0.806476 0.590003 -0.038635
vn -0.567559 0.402497 -0.718243
vn 0.986847 0.137159 0.085556
vn 0.056142 0.559756 -0.826753
vn 0.494273 0.482381 -0.723190
vn -0.681258 0.370872 -0.631143
vn -0.735937 0.676017 -0.037377
vn -0.621119 0.783636 -0.011233
vn -0.560837 0.744850 -0.361469
vn -0.086325 0.501960 0.860572
vn 0.706688 0.279476 0.649989
vn 0.524733 0.636090 0.565725
vn -0.062276 0.634004 0.770819
vn 0.834176 0.551489 -0.003069
vn -0.315659 -0.730212 -0.605929
vn 0.033372 -0.999327 -0.015218
vn -0.296034 -0.653893 0.696267
vn -0.548629 0.421944 0.721782
vn -0.584864 0.325952 0.742758
vn -0.495091 -0.493770 0.714896
vn -0.197951 -0.340661 0.919111
vn -0.270156 0.063173 0.960742
vn 0.030085 -0.993132 0.113064
vn 0.720584 -0.449193 0.528190
vn 0.028336 0.802269 -0.596290
vn 0.372961 0.816529 -0.440659
vn -0.362356 0.932012 0.007191
vn -0.260702 0.932750 -0.249023
vn 0.301738 0.802943 0.514040
vn -0.026523 0.754882 0.655324
vn 0.605437 0.795365 0.028989
vn -0.774533 0.632398 -0.013059
vn -0.645597 0.591440 -0.483118
vn 0.428524 0.587515 0.686435
vn -0.053162 0.659579 0.749753
vn -0.262150 0.919805 0.291952
vn -0.645875 0.557293 0.521794
vn -0.511547 0.714144 0.477826
vn 0.630937 0.114445 -0.767347
vn 0.615809 -0.469097 -0.633031
vn -0.479847 -0.567239 -0.669318
vn -0.572612 0.070276 -0.816809
vn 0.279845 0.552473 -0.785150
vn -0.230162 0.586873 -0.776277
s 1
usemtl lambert7SG
f 1/1/1 39/2/2 40/3/3 3/4/4
f 25/7/5 31/8/6 57/9/7 58/10/8
f 17/16/9 36/17/10 37/18/11 20/19/12
f 48/29/13 49/30/14 39/31/2 1/32/1
f 14/46/15 51/47/16 52/48/17 16/49/18
f 48/52/13 1/53/1 3/54/4 47/55/19
f 3/4/4 40/3/3 29/5/20 9/6/21
f 4/61/22 53/62/23 54/63/24 10/64/25
f 35/21/26 5/20/27 12/25/28 34/26/29
f 60/56/30 47/55/19 3/54/4 9/57/21
f 2/36/31 50/35/32 51/40/16 14/41/15
f 8/67/33 6/68/34 15/69/35 13/70/36
f 53/71/23 4/72/22 16/73/18 52/74/17
f 4/77/22 2/78/31 14/79/15 16/80/18
f 5/20/27 35/21/26 36/17/10 17/16/9
f 6/81/34 8/82/33 19/83/37 18/84/38
f 38/34/39 7/33/40 20/37/12 37/38/11
f 7/24/40 5/20/27 17/16/9 20/19/12
f 9/85/21 29/86/20 30/87/41 21/88/42
f 10/89/25 54/93/24 55/94/43 22/90/44
f 34/99/29 12/95/28 24/96/45 33/100/46
f 60/91/30 9/85/21 21/88/42 59/92/47
f 21/101/42 30/102/41 31/103/6 25/104/5
f 22/107/44 55/108/43 56/109/48 26/110/49
f 33/113/46 24/114/45 28/115/50 32/116/51
f 59/119/47 21/120/42 25/121/5 58/122/8
f 29/86/20 10/89/25 22/90/44 30/87/41
f 31/103/6 30/102/41 22/105/44 26/106/49
f 57/9/7 31/8/6 26/11/49 56/12/48
f 23/117/52 33/113/46 32/116/51 27/118/53
f 11/97/54 34/99/29 33/100/46 23/98/52
f 6/27/34 35/21/26 34/26/29 11/28/54
f 36/17/10 35/21/26 6/27/34 18/22/38
f 37/18/11 36/17/10 18/22/38 19/23/37
f 8/39/33 38/34/39 37/38/11 19/44/37
f 39/31/2 49/30/14 50/35/32 2/36/31
f 42/125/55 41/126/56 43/127/57 44/128/58
f 45/129/59 42/125/55 44/128/58 46/130/60
f 40/134/3 39/135/2 41/136/56 42/137/55
f 39/31/2 2/36/31 43/42/57 41/43/56
f 2/140/31 4/141/22 44/142/58 43/143/57
f 29/138/20 40/134/3 42/137/55 45/139/59
f 4/131/22 10/132/25 46/130/60 44/128/58
f 10/132/25 29/133/20 45/129/59 46/130/60
f 7/58/40 48/52/13 47/55/19 5/59/27
f 7/33/40 38/34/39 49/30/14 48/29/13
f 50/35/32 49/30/14 38/34/39 8/39/33
f 51/40/16 50/35/32 8/39/33 13/45/36
f 52/48/17 51/47/16 13/50/36 15/51/35
f 6/75/34 53/71/23 52/74/17 15/76/35
f 54/63/24 53/62/23 6/65/34 11/66/54
f 55/94/43 54/93/24 11/97/54 23/98/52
f 56/109/48 55/108/43 23/111/52 27/112/53
f 32/13/51 57/9/7 56/12/48 27/15/53
f 58/10/8 57/9/7 32/13/51 28/14/50
f 24/123/45 59/119/47 58/122/8 28/124/50
f 12/95/28 60/91/30 59/92/47 24/96/45
f 5/59/27 47/55/19 60/56/30 12/60/28
